<svg id="whlgroup-logo" xmlns="http://www.w3.org/2000/svg" width="1024" height="1024" viewBox="0 0 1024 1024"><path d="M471.85,549.77,330.28,478.7a10.018,10.018,0,0,0-8.97,0L179.67,549.66a10,10,0,0,0,0,17.88l141.61,70.97,4.48,2.25L442.77,582.2l29.07-14.55.06-.03a10,10,0,0,0-.05-17.85Zm0,0L330.28,478.7a10.018,10.018,0,0,0-8.97,0L179.67,549.66a10,10,0,0,0,0,17.88l141.61,70.97,4.48,2.25L442.77,582.2l29.07-14.55.06-.03a10,10,0,0,0-.05-17.85Zm372.5,0L702.77,478.7a10,10,0,0,0-8.96,0L587.19,532.11l-1.13.57-33.9,16.98a7.453,7.453,0,0,0-.91.53c-.01-.01-.02.01-.02.01a9.991,9.991,0,0,0,.93,17.34l141.61,70.97a.01.01,0,0,1,.01.01l4.48,2.24,146.07-73.11a10,10,0,0,0,.02-17.88Zm-372.5,0L330.28,478.7a10.018,10.018,0,0,0-8.97,0L179.67,549.66a10,10,0,0,0,0,17.88l141.61,70.97,4.48,2.25L442.77,582.2l29.07-14.55.06-.03a10,10,0,0,0-.05-17.85Zm372.5,0L702.77,478.7a10,10,0,0,0-8.96,0L587.19,532.11l-1.13.57-33.9,16.98a7.453,7.453,0,0,0-.91.53c-.01-.01-.02.01-.02.01a9.991,9.991,0,0,0,.93,17.34l141.61,70.97a.01.01,0,0,1,.01.01l4.48,2.24,146.07-73.11a10,10,0,0,0,.02-17.88Zm-372.5,0L330.28,478.7a10.018,10.018,0,0,0-8.97,0L179.67,549.66a10,10,0,0,0,0,17.88l141.61,70.97,4.48,2.25L442.77,582.2l29.07-14.55.06-.03a10,10,0,0,0-.05-17.85Zm372.5,0L702.77,478.7a10,10,0,0,0-8.96,0L587.19,532.11l-1.13.57-33.9,16.98a7.453,7.453,0,0,0-.91.53c-.01-.01-.02.01-.02.01a9.991,9.991,0,0,0,.93,17.34l141.61,70.97a.01.01,0,0,1,.01.01l4.48,2.24,146.07-73.11a10,10,0,0,0,.02-17.88Zm0,0L702.77,478.7a10,10,0,0,0-8.96,0L587.19,532.11l-1.13.57-33.9,16.98a7.453,7.453,0,0,0-.91.53c-.01-.01-.02.01-.02.01a9.991,9.991,0,0,0,.93,17.34l141.61,70.97a.01.01,0,0,1,.01.01l4.48,2.24,146.07-73.11a10,10,0,0,0,.02-17.88Zm-372.5,0L330.28,478.7a10.018,10.018,0,0,0-8.97,0L179.67,549.66a10,10,0,0,0,0,17.88l141.61,70.97,4.48,2.25L442.77,582.2l29.07-14.55.06-.03a10,10,0,0,0-.05-17.85Zm0,0L330.28,478.7a10.018,10.018,0,0,0-8.97,0L179.67,549.66a10,10,0,0,0,0,17.88l141.61,70.97,4.48,2.25L442.77,582.2l29.07-14.55.06-.03a10,10,0,0,0-.05-17.85Zm372.5,0L702.77,478.7a10,10,0,0,0-8.96,0L587.19,532.11l-1.13.57-33.9,16.98a7.453,7.453,0,0,0-.91.53c-.01-.01-.02.01-.02.01a9.991,9.991,0,0,0,.93,17.34l141.61,70.97a.01.01,0,0,1,.01.01l4.48,2.24,146.07-73.11a10,10,0,0,0,.02-17.88Zm0,0L702.77,478.7a10,10,0,0,0-8.96,0L587.19,532.11l-1.13.57-33.9,16.98a7.453,7.453,0,0,0-.91.53c-.01-.01-.02.01-.02.01a9.991,9.991,0,0,0,.93,17.34l141.61,70.97a.01.01,0,0,1,.01.01l4.48,2.24,146.07-73.11a10,10,0,0,0,.02-17.88Zm-372.5,0L330.28,478.7a10.018,10.018,0,0,0-8.97,0L179.67,549.66a10,10,0,0,0,0,17.88l141.61,70.97,4.48,2.25L442.77,582.2l29.07-14.55.06-.03a10,10,0,0,0-.05-17.85Zm0,0L330.28,478.7a10.018,10.018,0,0,0-8.97,0L179.67,549.66a10,10,0,0,0,0,17.88l141.61,70.97,4.48,2.25L442.77,582.2l29.07-14.55.06-.03a10,10,0,0,0-.05-17.85Zm372.5,0L702.77,478.7a10,10,0,0,0-8.96,0L587.19,532.11l-1.13.57-33.9,16.98a7.453,7.453,0,0,0-.91.53c-.01-.01-.02.01-.02.01a9.991,9.991,0,0,0,.93,17.34l141.61,70.97a.01.01,0,0,1,.01.01l4.48,2.24,146.07-73.11a10,10,0,0,0,.02-17.88Zm0,0L702.77,478.7a10,10,0,0,0-8.96,0L587.19,532.11l-1.13.57-33.9,16.98a7.453,7.453,0,0,0-.91.53c-.01-.01-.02.01-.02.01a9.991,9.991,0,0,0,.93,17.34l141.61,70.97a.01.01,0,0,1,.01.01l4.48,2.24,146.07-73.11a10,10,0,0,0,.02-17.88Zm-372.5,0L330.28,478.7a10.018,10.018,0,0,0-8.97,0L179.67,549.66a10,10,0,0,0,0,17.88l141.61,70.97,4.48,2.25L442.77,582.2l29.07-14.55.06-.03a10,10,0,0,0-.05-17.85Zm0,0L330.28,478.7a10.018,10.018,0,0,0-8.97,0L179.67,549.66a10,10,0,0,0,0,17.88l141.61,70.97,4.48,2.25L442.77,582.2l29.07-14.55.06-.03a10,10,0,0,0-.05-17.85Zm372.5,0L702.77,478.7a10,10,0,0,0-8.96,0L587.19,532.11l-1.13.57-33.9,16.98a7.453,7.453,0,0,0-.91.53c-.01-.01-.02.01-.02.01a9.991,9.991,0,0,0,.93,17.34l141.61,70.97a.01.01,0,0,1,.01.01l4.48,2.24,146.07-73.11a10,10,0,0,0,.02-17.88Zm0,0L702.77,478.7a10,10,0,0,0-8.96,0L587.19,532.11l-1.13.57-33.9,16.98a7.453,7.453,0,0,0-.91.53c-.01-.01-.02.01-.02.01a9.991,9.991,0,0,0,.93,17.34l141.61,70.97a.01.01,0,0,1,.01.01l4.48,2.24,146.07-73.11a10,10,0,0,0,.02-17.88Zm-372.5,0L330.28,478.7a10.018,10.018,0,0,0-8.97,0L179.67,549.66a10,10,0,0,0,0,17.88l141.61,70.97,4.48,2.25L442.77,582.2l29.07-14.55.06-.03a10,10,0,0,0-.05-17.85Zm0,0L330.28,478.7a10.018,10.018,0,0,0-8.97,0L179.67,549.66a10,10,0,0,0,0,17.88l141.61,70.97,4.48,2.25L442.77,582.2l29.07-14.55.06-.03a10,10,0,0,0-.05-17.85Zm372.5,0L702.77,478.7a10,10,0,0,0-8.96,0L587.19,532.11l-1.13.57-33.9,16.98a7.453,7.453,0,0,0-.91.53c-.01-.01-.02.01-.02.01a9.991,9.991,0,0,0,.93,17.34l141.61,70.97a.01.01,0,0,1,.01.01l4.48,2.24,146.07-73.11a10,10,0,0,0,.02-17.88Zm0,0L702.77,478.7a10,10,0,0,0-8.96,0L587.19,532.11l-1.13.57-33.9,16.98a7.453,7.453,0,0,0-.91.53c-.01-.01-.02.01-.02.01a9.991,9.991,0,0,0,.93,17.34l141.61,70.97a.01.01,0,0,1,.01.01l4.48,2.24,146.07-73.11a10,10,0,0,0,.02-17.88Zm-372.5,0L330.28,478.7a10.018,10.018,0,0,0-8.97,0L179.67,549.66a10,10,0,0,0,0,17.88l141.61,70.97,4.48,2.25L442.77,582.2l29.07-14.55.06-.03a10,10,0,0,0-.05-17.85Zm0,0L330.28,478.7a10.018,10.018,0,0,0-8.97,0L179.67,549.66a10,10,0,0,0,0,17.88l141.61,70.97,4.48,2.25L442.77,582.2l29.07-14.55.06-.03a10,10,0,0,0-.05-17.85Zm372.5,0L702.77,478.7a10,10,0,0,0-8.96,0L587.19,532.11l-1.13.57-33.9,16.98a7.453,7.453,0,0,0-.91.53c-.01-.01-.02.01-.02.01a9.991,9.991,0,0,0,.93,17.34l141.61,70.97a.01.01,0,0,1,.01.01l4.48,2.24,146.07-73.11a10,10,0,0,0,.02-17.88Zm0,0L702.77,478.7a10,10,0,0,0-8.96,0L587.19,532.11l-1.13.57-33.9,16.98a7.453,7.453,0,0,0-.91.53c-.01-.01-.02.01-.02.01a9.991,9.991,0,0,0,.93,17.34l141.61,70.97a.01.01,0,0,1,.01.01l4.48,2.24,146.07-73.11a10,10,0,0,0,.02-17.88Zm-372.5,0L330.28,478.7a10.018,10.018,0,0,0-8.97,0L179.67,549.66a10,10,0,0,0,0,17.88l141.61,70.97,4.48,2.25L442.77,582.2l29.07-14.55.06-.03a10,10,0,0,0-.05-17.85Zm0,0L330.28,478.7a10.018,10.018,0,0,0-8.97,0L179.67,549.66a10,10,0,0,0,0,17.88l141.61,70.97,4.48,2.25L442.77,582.2l29.07-14.55.06-.03a10,10,0,0,0-.05-17.85ZM658.1,270.16,516.52,199.09a10,10,0,0,0-8.96,0L365.91,270.05a10,10,0,0,0,0,17.88L507.52,358.9a.01.01,0,0,1,.01.01,10.018,10.018,0,0,0,8.95-.01l141.6-70.86a10,10,0,0,0,.02-17.88ZM844.35,549.77,702.77,478.7a10,10,0,0,0-8.96,0L587.19,532.11l-1.13.57-33.9,16.98a7.453,7.453,0,0,0-.91.53c-.01-.01-.02.01-.02.01a9.991,9.991,0,0,0,.93,17.34l141.61,70.97a.01.01,0,0,1,.01.01l4.48,2.24,146.07-73.11a10,10,0,0,0,.02-17.88Zm0,0L702.77,478.7a10,10,0,0,0-8.96,0L587.19,532.11l-1.13.57-33.9,16.98a7.453,7.453,0,0,0-.91.53c-.01-.01-.02.01-.02.01a9.991,9.991,0,0,0,.93,17.34l141.61,70.97a.01.01,0,0,1,.01.01l4.48,2.24,146.07-73.11a10,10,0,0,0,.02-17.88ZM658.1,270.16,516.52,199.09a10,10,0,0,0-8.96,0L365.91,270.05a10,10,0,0,0,0,17.88L507.52,358.9a.01.01,0,0,1,.01.01,10.018,10.018,0,0,0,8.95-.01l141.6-70.86a10,10,0,0,0,.02-17.88ZM471.85,549.77,330.28,478.7a10.018,10.018,0,0,0-8.97,0L179.67,549.66a10,10,0,0,0,0,17.88l141.61,70.97,4.48,2.25L442.77,582.2l29.07-14.55.06-.03a10,10,0,0,0-.05-17.85Zm0,0L330.28,478.7a10.018,10.018,0,0,0-8.97,0L179.67,549.66a10,10,0,0,0,0,17.88l141.61,70.97,4.48,2.25L442.77,582.2l29.07-14.55.06-.03a10,10,0,0,0-.05-17.85ZM658.1,270.16,516.52,199.09a10,10,0,0,0-8.96,0L365.91,270.05a10,10,0,0,0,0,17.88L507.52,358.9a.01.01,0,0,1,.01.01,10.018,10.018,0,0,0,8.95-.01l141.6-70.86a10,10,0,0,0,.02-17.88ZM844.35,549.77,702.77,478.7a10,10,0,0,0-8.96,0L587.19,532.11l-1.13.57-33.9,16.98a7.453,7.453,0,0,0-.91.53c-.01-.01-.02.01-.02.01a9.991,9.991,0,0,0,.93,17.34l141.61,70.97a.01.01,0,0,1,.01.01l4.48,2.24,146.07-73.11a10,10,0,0,0,.02-17.88Zm0,0L702.77,478.7a10,10,0,0,0-8.96,0L587.19,532.11l-1.13.57-33.9,16.98a7.453,7.453,0,0,0-.91.53c-.01-.01-.02.01-.02.01a9.991,9.991,0,0,0,.93,17.34l141.61,70.97a.01.01,0,0,1,.01.01l4.48,2.24,146.07-73.11a10,10,0,0,0,.02-17.88ZM658.1,270.16,516.52,199.09a10,10,0,0,0-8.96,0L365.91,270.05a10,10,0,0,0,0,17.88L507.52,358.9a.01.01,0,0,1,.01.01,10.018,10.018,0,0,0,8.95-.01l141.6-70.86a10,10,0,0,0,.02-17.88ZM471.85,549.77,330.28,478.7a10.018,10.018,0,0,0-8.97,0L179.67,549.66a10,10,0,0,0,0,17.88l141.61,70.97,4.48,2.25L442.77,582.2l29.07-14.55.06-.03a10,10,0,0,0-.05-17.85Zm0,0L330.28,478.7a10.018,10.018,0,0,0-8.97,0L179.67,549.66a10,10,0,0,0,0,17.88l141.61,70.97,4.48,2.25L442.77,582.2l29.07-14.55.06-.03a10,10,0,0,0-.05-17.85ZM658.1,270.16,516.52,199.09a10,10,0,0,0-8.96,0L365.91,270.05a10,10,0,0,0,0,17.88L507.52,358.9a.01.01,0,0,1,.01.01,10.018,10.018,0,0,0,8.95-.01l141.6-70.86a10,10,0,0,0,.02-17.88ZM844.35,549.77,702.77,478.7a10,10,0,0,0-8.96,0L587.19,532.11l-1.13.57-33.9,16.98a7.453,7.453,0,0,0-.91.53c-.01-.01-.02.01-.02.01a9.991,9.991,0,0,0,.93,17.34l141.61,70.97a.01.01,0,0,1,.01.01l4.48,2.24,146.07-73.11a10,10,0,0,0,.02-17.88Zm0,0L702.77,478.7a10,10,0,0,0-8.96,0L587.19,532.11l-1.13.57-33.9,16.98a7.453,7.453,0,0,0-.91.53c-.01-.01-.02.01-.02.01a9.991,9.991,0,0,0,.93,17.34l141.61,70.97a.01.01,0,0,1,.01.01l4.48,2.24,146.07-73.11a10,10,0,0,0,.02-17.88ZM658.1,270.16,516.52,199.09a10,10,0,0,0-8.96,0L365.91,270.05a10,10,0,0,0,0,17.88L507.52,358.9a.01.01,0,0,1,.01.01,10.018,10.018,0,0,0,8.95-.01l141.6-70.86a10,10,0,0,0,.02-17.88ZM471.85,549.77,330.28,478.7a10.018,10.018,0,0,0-8.97,0L179.67,549.66a10,10,0,0,0,0,17.88l141.61,70.97,4.48,2.25L442.77,582.2l29.07-14.55.06-.03a10,10,0,0,0-.05-17.85Zm0,0L330.28,478.7a10.018,10.018,0,0,0-8.97,0L179.67,549.66a10,10,0,0,0,0,17.88l141.61,70.97,4.48,2.25L442.77,582.2l29.07-14.55.06-.03a10,10,0,0,0-.05-17.85ZM658.1,270.16,516.52,199.09a10,10,0,0,0-8.96,0L365.91,270.05a10,10,0,0,0,0,17.88L507.52,358.9a.01.01,0,0,1,.01.01,10.018,10.018,0,0,0,8.95-.01l141.6-70.86a10,10,0,0,0,.02-17.88ZM844.35,549.77,702.77,478.7a10,10,0,0,0-8.96,0L587.19,532.11l-1.13.57-33.9,16.98a7.453,7.453,0,0,0-.91.53c-.01-.01-.02.01-.02.01a9.991,9.991,0,0,0,.93,17.34l141.61,70.97a.01.01,0,0,1,.01.01l4.48,2.24,146.07-73.11a10,10,0,0,0,.02-17.88Zm0,0L702.77,478.7a10,10,0,0,0-8.96,0L587.19,532.11l-1.13.57-33.9,16.98a7.453,7.453,0,0,0-.91.53c-.01-.01-.02.01-.02.01a9.991,9.991,0,0,0,.93,17.34l141.61,70.97a.01.01,0,0,1,.01.01l4.48,2.24,146.07-73.11a10,10,0,0,0,.02-17.88ZM663.61,279.1a10.007,10.007,0,0,0-5.51-8.94L516.52,199.09a10,10,0,0,0-8.96,0L365.91,270.05a10,10,0,0,0,0,17.88L507.52,358.9a.01.01,0,0,1,.01.01,10.018,10.018,0,0,0,8.95-.01l141.6-70.86A9.985,9.985,0,0,0,663.61,279.1ZM471.85,549.77,330.28,478.7a10.018,10.018,0,0,0-8.97,0L179.67,549.66a10,10,0,0,0,0,17.88l141.61,70.97,4.48,2.25L442.77,582.2l29.07-14.55.06-.03a10,10,0,0,0-.05-17.85ZM864.7,0H159.3A159.3,159.3,0,0,0,0,159.3V864.7A159.3,159.3,0,0,0,159.3,1024H864.7A159.3,159.3,0,0,0,1024,864.7V159.3A159.3,159.3,0,0,0,864.7,0Zm29.8,744.66a9.981,9.981,0,0,1-5.51,8.93L702.89,847.2q-.315.165-.63.3c-.22.09-.43.18-.65.26l-.66.21c-.21.06-.43.11-.64.16-.16.03-.31.06-.47.08a3.321,3.321,0,0,1-.44.06,5.481,5.481,0,0,1-.57.05c-.19.01-.39.02-.58.02s-.39-.01-.58-.02a5.481,5.481,0,0,1-.57-.05,3.321,3.321,0,0,1-.44-.06c-.16-.02-.31-.05-.47-.08s-.34-.08-.51-.13a9.136,9.136,0,0,1-1.92-.73l-.23-.11L512,755.85,330.39,847.2q-.315.165-.63.3c-.22.09-.43.18-.65.26l-.66.21c-.21.06-.43.11-.64.16-.16.03-.31.06-.47.08a3.321,3.321,0,0,1-.44.06,5.481,5.481,0,0,1-.57.05c-.19.01-.39.02-.58.02s-.39-.01-.58-.02a5.481,5.481,0,0,1-.57-.05,3.321,3.321,0,0,1-.44-.06c-.16-.02-.31-.05-.47-.08s-.34-.08-.51-.13a9.136,9.136,0,0,1-1.92-.73l-.23-.11L135.01,753.59a9.981,9.981,0,0,1-5.51-8.93V558.6c0-.24.01-.47.03-.7s.04-.47.07-.7c.03-.19.06-.38.1-.56a1.873,1.873,0,0,1,.08-.34,2.6,2.6,0,0,1,.1-.4.573.573,0,0,1,.04-.14c.04-.15.09-.29.14-.44a1.815,1.815,0,0,1,.11-.3,7.26,7.26,0,0,1,.38-.86,3.168,3.168,0,0,1,.21-.41,9.588,9.588,0,0,1,1.03-1.51,5.084,5.084,0,0,1,.38-.43,9.591,9.591,0,0,1,2.39-1.89,3.3,3.3,0,0,1,.41-.23c.02-.01.03-.02.05-.03l180.73-90.55V278.99c0-.32.02-.64.05-.95.01-.15.03-.29.05-.43a4.507,4.507,0,0,1,.09-.53,3.574,3.574,0,0,1,.11-.47,6.047,6.047,0,0,1,.24-.83,4.6,4.6,0,0,1,.19-.52c.07-.19.16-.38.24-.57.01-.01.01-.02.02-.03a5.122,5.122,0,0,1,.27-.52,9.856,9.856,0,0,1,2.44-2.9,4.906,4.906,0,0,1,.51-.39,6.332,6.332,0,0,1,.54-.36c.2-.13.4-.24.61-.35.05-.03.11-.06.16-.09l186.3-93.33a10.018,10.018,0,0,1,8.97,0l186.2,93.47c.02.01.03.02.05.03a4.359,4.359,0,0,1,.42.23,9.773,9.773,0,0,1,2.38,1.89c.13.14.26.28.38.43.14.18.28.36.41.54s.26.38.38.57.23.38.33.57l.03.06c.09.18.18.36.26.55.01.02.03.05.04.07.07.16.13.33.19.49a7.862,7.862,0,0,1,.27.82,2.744,2.744,0,0,1,.09.39,2.368,2.368,0,0,1,.08.34c.04.19.08.38.1.56.02.16.04.32.05.47a7.4,7.4,0,0,1,.05.94V459.07L888.99,549.8c.02.01.03.02.05.03a4.359,4.359,0,0,1,.42.23,9.954,9.954,0,0,1,1.82,1.32c.17.16.33.32.49.49s.3.33.45.51.28.36.41.54.26.38.38.57.23.38.33.57l.03.06c.09.18.18.36.26.55a.435.435,0,0,1,.04.07c.07.17.14.35.21.53.05.14.1.27.14.41a5.084,5.084,0,0,1,.15.52,5.43,5.43,0,0,1,.13.58,5.033,5.033,0,0,1,.1.56c.02.15.04.31.05.47a7.15,7.15,0,0,1,.05.93ZM844.35,549.77,702.77,478.7a10,10,0,0,0-8.96,0L587.19,532.11l-1.13.57-33.9,16.98a7.453,7.453,0,0,0-.91.53c-.01-.01-.02.01-.02.01a9.991,9.991,0,0,0,.93,17.34l141.61,70.97a.01.01,0,0,1,.01.01l4.48,2.24,146.07-73.11a10,10,0,0,0,.02-17.88ZM663.61,279.1a10.007,10.007,0,0,0-5.51-8.94L516.52,199.09a10,10,0,0,0-8.96,0L365.91,270.05a10,10,0,0,0,0,17.88L507.52,358.9a.01.01,0,0,1,.01.01,10.018,10.018,0,0,0,8.95-.01l141.6-70.86A9.985,9.985,0,0,0,663.61,279.1ZM471.85,549.77,330.28,478.7a10.018,10.018,0,0,0-8.97,0L179.67,549.66a10,10,0,0,0,0,17.88l141.61,70.97,4.48,2.25L442.77,582.2l29.07-14.55.06-.03a10,10,0,0,0-.05-17.85Zm0,0L330.28,478.7a10.018,10.018,0,0,0-8.97,0L179.67,549.66a10,10,0,0,0,0,17.88l141.61,70.97,4.48,2.25L442.77,582.2l29.07-14.55.06-.03a10,10,0,0,0-.05-17.85ZM658.1,270.16,516.52,199.09a10,10,0,0,0-8.96,0L365.91,270.05a10,10,0,0,0,0,17.88L507.52,358.9a.01.01,0,0,1,.01.01,10.018,10.018,0,0,0,8.95-.01l141.6-70.86a10,10,0,0,0,.02-17.88ZM844.35,549.77,702.77,478.7a10,10,0,0,0-8.96,0L587.19,532.11l-1.13.57-33.9,16.98a7.453,7.453,0,0,0-.91.53c-.01-.01-.02.01-.02.01a9.991,9.991,0,0,0,.93,17.34l141.61,70.97a.01.01,0,0,1,.01.01l4.48,2.24,146.07-73.11a10,10,0,0,0,.02-17.88Zm0,0L702.77,478.7a10,10,0,0,0-8.96,0L587.19,532.11l-1.13.57-33.9,16.98a7.453,7.453,0,0,0-.91.53c-.01-.01-.02.01-.02.01a9.991,9.991,0,0,0,.93,17.34l141.61,70.97a.01.01,0,0,1,.01.01l4.48,2.24,146.07-73.11a10,10,0,0,0,.02-17.88ZM658.1,270.16,516.52,199.09a10,10,0,0,0-8.96,0L365.91,270.05a10,10,0,0,0,0,17.88L507.52,358.9a.01.01,0,0,1,.01.01,10.018,10.018,0,0,0,8.95-.01l141.6-70.86a10,10,0,0,0,.02-17.88ZM471.85,549.77,330.28,478.7a10.018,10.018,0,0,0-8.97,0L179.67,549.66a10,10,0,0,0,0,17.88l141.61,70.97,4.48,2.25L442.77,582.2l29.07-14.55.06-.03a10,10,0,0,0-.05-17.85Zm0,0L330.28,478.7a10.018,10.018,0,0,0-8.97,0L179.67,549.66a10,10,0,0,0,0,17.88l141.61,70.97,4.48,2.25L442.77,582.2l29.07-14.55.06-.03a10,10,0,0,0-.05-17.85ZM658.1,270.16,516.52,199.09a10,10,0,0,0-8.96,0L365.91,270.05a10,10,0,0,0,0,17.88L507.52,358.9a.01.01,0,0,1,.01.01,10.018,10.018,0,0,0,8.95-.01l141.6-70.86a10,10,0,0,0,.02-17.88ZM844.35,549.77,702.77,478.7a10,10,0,0,0-8.96,0L587.19,532.11l-1.13.57-33.9,16.98a7.453,7.453,0,0,0-.91.53c-.01-.01-.02.01-.02.01a9.991,9.991,0,0,0,.93,17.34l141.61,70.97a.01.01,0,0,1,.01.01l4.48,2.24,146.07-73.11a10,10,0,0,0,.02-17.88Zm0,0L702.77,478.7a10,10,0,0,0-8.96,0L587.19,532.11l-1.13.57-33.9,16.98a7.453,7.453,0,0,0-.91.53c-.01-.01-.02.01-.02.01a9.991,9.991,0,0,0,.93,17.34l141.61,70.97a.01.01,0,0,1,.01.01l4.48,2.24,146.07-73.11a10,10,0,0,0,.02-17.88ZM658.1,270.16,516.52,199.09a10,10,0,0,0-8.96,0L365.91,270.05a10,10,0,0,0,0,17.88L507.52,358.9a.01.01,0,0,1,.01.01,10.018,10.018,0,0,0,8.95-.01l141.6-70.86a10,10,0,0,0,.02-17.88ZM471.85,549.77,330.28,478.7a10.018,10.018,0,0,0-8.97,0L179.67,549.66a10,10,0,0,0,0,17.88l141.61,70.97,4.48,2.25L442.77,582.2l29.07-14.55.06-.03a10,10,0,0,0-.05-17.85Zm0,0L330.28,478.7a10.018,10.018,0,0,0-8.97,0L179.67,549.66a10,10,0,0,0,0,17.88l141.61,70.97,4.48,2.25L442.77,582.2l29.07-14.55.06-.03a10,10,0,0,0-.05-17.85ZM658.1,270.16,516.52,199.09a10,10,0,0,0-8.96,0L365.91,270.05a10,10,0,0,0,0,17.88L507.52,358.9a.01.01,0,0,1,.01.01,10.018,10.018,0,0,0,8.95-.01l141.6-70.86a10,10,0,0,0,.02-17.88ZM844.35,549.77,702.77,478.7a10,10,0,0,0-8.96,0L587.19,532.11l-1.13.57-33.9,16.98a7.453,7.453,0,0,0-.91.53c-.01-.01-.02.01-.02.01a9.991,9.991,0,0,0,.93,17.34l141.61,70.97a.01.01,0,0,1,.01.01l4.48,2.24,146.07-73.11a10,10,0,0,0,.02-17.88Zm0,0L702.77,478.7a10,10,0,0,0-8.96,0L587.19,532.11l-1.13.57-33.9,16.98a7.453,7.453,0,0,0-.91.53c-.01-.01-.02.01-.02.01a9.991,9.991,0,0,0,.93,17.34l141.61,70.97a.01.01,0,0,1,.01.01l4.48,2.24,146.07-73.11a10,10,0,0,0,.02-17.88ZM658.1,270.16,516.52,199.09a10,10,0,0,0-8.96,0L365.91,270.05a10,10,0,0,0,0,17.88L507.52,358.9a.01.01,0,0,1,.01.01,10.018,10.018,0,0,0,8.95-.01l141.6-70.86a10,10,0,0,0,.02-17.88ZM471.85,549.77,330.28,478.7a10.018,10.018,0,0,0-8.97,0L179.67,549.66a10,10,0,0,0,0,17.88l141.61,70.97,4.48,2.25L442.77,582.2l29.07-14.55.06-.03a10,10,0,0,0-.05-17.85Zm0,0L330.28,478.7a10.018,10.018,0,0,0-8.97,0L179.67,549.66a10,10,0,0,0,0,17.88l141.61,70.97,4.48,2.25L442.77,582.2l29.07-14.55.06-.03a10,10,0,0,0-.05-17.85Zm372.5,0L702.77,478.7a10,10,0,0,0-8.96,0L587.19,532.11l-1.13.57-33.9,16.98a7.453,7.453,0,0,0-.91.53c-.01-.01-.02.01-.02.01a9.991,9.991,0,0,0,.93,17.34l141.61,70.97a.01.01,0,0,1,.01.01l4.48,2.24,146.07-73.11a10,10,0,0,0,.02-17.88Zm0,0L702.77,478.7a10,10,0,0,0-8.96,0L587.19,532.11l-1.13.57-33.9,16.98a7.453,7.453,0,0,0-.91.53c-.01-.01-.02.01-.02.01a9.991,9.991,0,0,0,.93,17.34l141.61,70.97a.01.01,0,0,1,.01.01l4.48,2.24,146.07-73.11a10,10,0,0,0,.02-17.88Zm-372.5,0L330.28,478.7a10.018,10.018,0,0,0-8.97,0L179.67,549.66a10,10,0,0,0,0,17.88l141.61,70.97,4.48,2.25L442.77,582.2l29.07-14.55.06-.03a10,10,0,0,0-.05-17.85Zm0,0L330.28,478.7a10.018,10.018,0,0,0-8.97,0L179.67,549.66a10,10,0,0,0,0,17.88l141.61,70.97,4.48,2.25L442.77,582.2l29.07-14.55.06-.03a10,10,0,0,0-.05-17.85Zm372.5,0L702.77,478.7a10,10,0,0,0-8.96,0L587.19,532.11l-1.13.57-33.9,16.98a7.453,7.453,0,0,0-.91.53c-.01-.01-.02.01-.02.01a9.991,9.991,0,0,0,.93,17.34l141.61,70.97a.01.01,0,0,1,.01.01l4.48,2.24,146.07-73.11a10,10,0,0,0,.02-17.88Zm0,0L702.77,478.7a10,10,0,0,0-8.96,0L587.19,532.11l-1.13.57-33.9,16.98a7.453,7.453,0,0,0-.91.53c-.01-.01-.02.01-.02.01a9.991,9.991,0,0,0,.93,17.34l141.61,70.97a.01.01,0,0,1,.01.01l4.48,2.24,146.07-73.11a10,10,0,0,0,.02-17.88Zm-372.5,0L330.28,478.7a10.018,10.018,0,0,0-8.97,0L179.67,549.66a10,10,0,0,0,0,17.88l141.61,70.97,4.48,2.25L442.77,582.2l29.07-14.55.06-.03a10,10,0,0,0-.05-17.85Zm0,0L330.28,478.7a10.018,10.018,0,0,0-8.97,0L179.67,549.66a10,10,0,0,0,0,17.88l141.61,70.97,4.48,2.25L442.77,582.2l29.07-14.55.06-.03a10,10,0,0,0-.05-17.85Zm372.5,0L702.77,478.7a10,10,0,0,0-8.96,0L587.19,532.11l-1.13.57-33.9,16.98a7.453,7.453,0,0,0-.91.53c-.01-.01-.02.01-.02.01a9.991,9.991,0,0,0,.93,17.34l141.61,70.97a.01.01,0,0,1,.01.01l4.48,2.24,146.07-73.11a10,10,0,0,0,.02-17.88Zm0,0L702.77,478.7a10,10,0,0,0-8.96,0L587.19,532.11l-1.13.57-33.9,16.98a7.453,7.453,0,0,0-.91.53c-.01-.01-.02.01-.02.01a9.991,9.991,0,0,0,.93,17.34l141.61,70.97a.01.01,0,0,1,.01.01l4.48,2.24,146.07-73.11a10,10,0,0,0,.02-17.88Zm-372.5,0L330.28,478.7a10.018,10.018,0,0,0-8.97,0L179.67,549.66a10,10,0,0,0,0,17.88l141.61,70.97,4.48,2.25L442.77,582.2l29.07-14.55.06-.03a10,10,0,0,0-.05-17.85Zm0,0L330.28,478.7a10.018,10.018,0,0,0-8.97,0L179.67,549.66a10,10,0,0,0,0,17.88l141.61,70.97,4.48,2.25L442.77,582.2l29.07-14.55.06-.03a10,10,0,0,0-.05-17.85Zm372.5,0L702.77,478.7a10,10,0,0,0-8.96,0L587.19,532.11l-1.13.57-33.9,16.98a7.453,7.453,0,0,0-.91.53c-.01-.01-.02.01-.02.01a9.991,9.991,0,0,0,.93,17.34l141.61,70.97a.01.01,0,0,1,.01.01l4.48,2.24,146.07-73.11a10,10,0,0,0,.02-17.88Zm0,0L702.77,478.7a10,10,0,0,0-8.96,0L587.19,532.11l-1.13.57-33.9,16.98a7.453,7.453,0,0,0-.91.53c-.01-.01-.02.01-.02.01a9.991,9.991,0,0,0,.93,17.34l141.61,70.97a.01.01,0,0,1,.01.01l4.48,2.24,146.07-73.11a10,10,0,0,0,.02-17.88Zm-372.5,0L330.28,478.7a10.018,10.018,0,0,0-8.97,0L179.67,549.66a10,10,0,0,0,0,17.88l141.61,70.97,4.48,2.25L442.77,582.2l29.07-14.55.06-.03a10,10,0,0,0-.05-17.85Zm0,0L330.28,478.7a10.018,10.018,0,0,0-8.97,0L179.67,549.66a10,10,0,0,0,0,17.88l141.61,70.97,4.48,2.25L442.77,582.2l29.07-14.55.06-.03a10,10,0,0,0-.05-17.85Zm372.5,0L702.77,478.7a10,10,0,0,0-8.96,0L587.19,532.11l-1.13.57-33.9,16.98a7.453,7.453,0,0,0-.91.53c-.01-.01-.02.01-.02.01a9.991,9.991,0,0,0,.93,17.34l141.61,70.97a.01.01,0,0,1,.01.01l4.48,2.24,146.07-73.11a10,10,0,0,0,.02-17.88Zm0,0L702.77,478.7a10,10,0,0,0-8.96,0L587.19,532.11l-1.13.57-33.9,16.98a7.453,7.453,0,0,0-.91.53c-.01-.01-.02.01-.02.01a9.991,9.991,0,0,0,.93,17.34l141.61,70.97a.01.01,0,0,1,.01.01l4.48,2.24,146.07-73.11a10,10,0,0,0,.02-17.88Zm-372.5,0L330.28,478.7a10.018,10.018,0,0,0-8.97,0L179.67,549.66a10,10,0,0,0,0,17.88l141.61,70.97,4.48,2.25L442.77,582.2l29.07-14.55.06-.03a10,10,0,0,0-.05-17.85Zm0,0L330.28,478.7a10.018,10.018,0,0,0-8.97,0L179.67,549.66a10,10,0,0,0,0,17.88l141.61,70.97,4.48,2.25L442.77,582.2l29.07-14.55.06-.03a10,10,0,0,0-.05-17.85Zm372.5,0L702.77,478.7a10,10,0,0,0-8.96,0L587.19,532.11l-1.13.57-33.9,16.98a7.453,7.453,0,0,0-.91.53c-.01-.01-.02.01-.02.01a9.991,9.991,0,0,0,.93,17.34l141.61,70.97a.01.01,0,0,1,.01.01l4.48,2.24,146.07-73.11a10,10,0,0,0,.02-17.88Zm0,0L702.77,478.7a10,10,0,0,0-8.96,0L587.19,532.11l-1.13.57-33.9,16.98a7.453,7.453,0,0,0-.91.53c-.01-.01-.02.01-.02.01a9.991,9.991,0,0,0,.93,17.34l141.61,70.97a.01.01,0,0,1,.01.01l4.48,2.24,146.07-73.11a10,10,0,0,0,.02-17.88Zm-372.5,0L330.28,478.7a10.018,10.018,0,0,0-8.97,0L179.67,549.66a10,10,0,0,0,0,17.88l141.61,70.97,4.48,2.25L442.77,582.2l29.07-14.55.06-.03a10,10,0,0,0-.05-17.85Zm0,0L330.28,478.7a10.018,10.018,0,0,0-8.97,0L179.67,549.66a10,10,0,0,0,0,17.88l141.61,70.97,4.48,2.25L442.77,582.2l29.07-14.55.06-.03a10,10,0,0,0-.05-17.85Zm372.5,0L702.77,478.7a10,10,0,0,0-8.96,0L587.19,532.11l-1.13.57-33.9,16.98a7.453,7.453,0,0,0-.91.53c-.01-.01-.02.01-.02.01a9.991,9.991,0,0,0,.93,17.34l141.61,70.97a.01.01,0,0,1,.01.01l4.48,2.24,146.07-73.11a10,10,0,0,0,.02-17.88Zm-372.5,0L330.28,478.7a10.018,10.018,0,0,0-8.97,0L179.67,549.66a10,10,0,0,0,0,17.88l141.61,70.97,4.48,2.25L442.77,582.2l29.07-14.55.06-.03a10,10,0,0,0-.05-17.85Zm372.5,0L702.77,478.7a10,10,0,0,0-8.96,0L587.19,532.11l-1.13.57-33.9,16.98a7.453,7.453,0,0,0-.91.53c-.01-.01-.02.01-.02.01a9.991,9.991,0,0,0,.93,17.34l141.61,70.97a.01.01,0,0,1,.01.01l4.48,2.24,146.07-73.11a10,10,0,0,0,.02-17.88Zm-372.5,0L330.28,478.7a10.018,10.018,0,0,0-8.97,0L179.67,549.66a10,10,0,0,0,0,17.88l141.61,70.97,4.48,2.25L442.77,582.2l29.07-14.55.06-.03a10,10,0,0,0-.05-17.85Zm372.5,0L702.77,478.7a10,10,0,0,0-8.96,0L587.19,532.11l-1.13.57-33.9,16.98a7.453,7.453,0,0,0-.91.53c-.01-.01-.02.01-.02.01a9.991,9.991,0,0,0,.93,17.34l141.61,70.97a.01.01,0,0,1,.01.01l4.48,2.24,146.07-73.11a10,10,0,0,0,.02-17.88Zm-372.5,0L330.28,478.7a10.018,10.018,0,0,0-8.97,0L179.67,549.66a10,10,0,0,0,0,17.88l141.61,70.97,4.48,2.25L442.77,582.2l29.07-14.55.06-.03a10,10,0,0,0-.05-17.85Zm372.5,0L702.77,478.7a10,10,0,0,0-8.96,0L587.19,532.11l-1.13.57-33.9,16.98a7.453,7.453,0,0,0-.91.53c-.01-.01-.02.01-.02.01a9.991,9.991,0,0,0,.93,17.34l141.61,70.97a.01.01,0,0,1,.01.01l4.48,2.24,146.07-73.11a10,10,0,0,0,.02-17.88Z" style="fill:#3c4951"/><path d="M894.45,557.81c-.01-.16-.03-.32-.05-.47a5.033,5.033,0,0,0-.1-.56,5.43,5.43,0,0,0-.13-.58,5.084,5.084,0,0,0-.15-.52c-.04-.14-.09-.27-.14-.41-.07-.18-.14-.36-.21-.53a.435.435,0,0,0-.04-.07c-.08-.19-.17-.37-.26-.55l-.03-.06q-.15-.285-.33-.57c-.12-.19-.24-.38-.38-.57s-.27-.36-.41-.54-.3-.35-.45-.51-.32-.33-.49-.49a9.954,9.954,0,0,0-1.82-1.32,4.359,4.359,0,0,0-.42-.23c-.02-.01-.03-.02-.05-.03L708.25,459.07V279.14a7.4,7.4,0,0,0-.05-.94c-.01-.15-.03-.31-.05-.47-.02-.18-.06-.37-.1-.56a2.368,2.368,0,0,0-.08-.34,2.744,2.744,0,0,0-.09-.39,7.862,7.862,0,0,0-.27-.82c-.06-.16-.12-.33-.19-.49-.01-.02-.03-.05-.04-.07-.08-.19-.17-.37-.26-.55l-.03-.06q-.15-.285-.33-.57c-.12-.19-.24-.38-.38-.57s-.27-.36-.41-.54c-.12-.15-.25-.29-.38-.43a9.773,9.773,0,0,0-2.38-1.89,4.359,4.359,0,0,0-.42-.23c-.02-.01-.03-.02-.05-.03l-186.2-93.47a10.018,10.018,0,0,0-8.97,0l-186.3,93.33c-.05.03-.11.06-.16.09-.21.11-.41.22-.61.35a6.332,6.332,0,0,0-.54.36,4.906,4.906,0,0,0-.51.39,9.856,9.856,0,0,0-2.44,2.9,5.122,5.122,0,0,0-.27.52c-.01.01-.01.02-.02.03-.08.19-.17.38-.24.57a4.6,4.6,0,0,0-.19.52,6.047,6.047,0,0,0-.24.83,3.574,3.574,0,0,0-.11.47,4.507,4.507,0,0,0-.09.53c-.02.14-.04.28-.05.43-.03.31-.05.63-.05.95V459.11L135.02,549.66c-.02.01-.03.02-.05.03a3.3,3.3,0,0,0-.41.23,9.591,9.591,0,0,0-2.39,1.89,5.084,5.084,0,0,0-.38.43,9.588,9.588,0,0,0-1.03,1.51,3.168,3.168,0,0,0-.21.41,7.26,7.26,0,0,0-.38.86,1.815,1.815,0,0,0-.11.3c-.05.15-.1.29-.14.44a.573.573,0,0,0-.04.14,2.6,2.6,0,0,0-.1.4,1.873,1.873,0,0,0-.08.34c-.04.18-.07.37-.1.56-.03.23-.06.46-.07.7s-.03.46-.03.7V744.66a9.981,9.981,0,0,0,5.51,8.93l186.02,93.57.23.11a9.136,9.136,0,0,0,1.92.73c.17.05.34.09.51.13s.31.06.47.08a3.321,3.321,0,0,0,.44.06,5.481,5.481,0,0,0,.57.05c.19.01.39.02.58.02s.39-.01.58-.02a5.481,5.481,0,0,0,.57-.05,3.321,3.321,0,0,0,.44-.06c.16-.02.31-.05.47-.08.21-.05.43-.1.64-.16l.66-.21c.22-.08.43-.17.65-.26s.42-.19.63-.3L512,755.85l181.53,91.31.23.11a9.136,9.136,0,0,0,1.92.73c.17.05.34.09.51.13s.31.06.47.08a3.321,3.321,0,0,0,.44.06,5.481,5.481,0,0,0,.57.05c.19.01.39.02.58.02s.39-.01.58-.02a5.481,5.481,0,0,0,.57-.05,3.321,3.321,0,0,0,.44-.06c.16-.02.31-.05.47-.08.21-.05.43-.1.64-.16l.66-.21c.22-.08.43-.17.65-.26s.42-.19.63-.3l186.1-93.61a9.981,9.981,0,0,0,5.51-8.93V558.74A7.15,7.15,0,0,0,894.45,557.81ZM365.91,270.05l141.65-70.96a10,10,0,0,1,8.96,0L658.1,270.16a10,10,0,0,1-.02,17.88L516.48,358.9a10.018,10.018,0,0,1-8.95.01.01.01,0,0,0-.01-.01L365.91,287.93a10,10,0,0,1,0-17.88ZM471.9,567.62l-.06.03L442.77,582.2,325.76,640.76l-4.48-2.25L179.67,567.54a10,10,0,0,1,0-17.88L321.31,478.7a10.018,10.018,0,0,1,8.97,0l141.57,71.07a10,10,0,0,1,.05,17.85Zm372.43.03L698.26,640.76l-4.48-2.24a.01.01,0,0,0-.01-.01L552.16,567.54a9.991,9.991,0,0,1-.93-17.34s.01-.02.02-.01a7.453,7.453,0,0,1,.91-.53l33.9-16.98,1.13-.57L693.81,478.7a10,10,0,0,1,8.96,0l141.58,71.07a10,10,0,0,1-.02,17.88Z" style="fill:#d99c78"/></svg>