<svg id="whlgroup-logo" xmlns="http://www.w3.org/2000/svg" width="1024" height="1024" viewBox="0 0 1024 1024"><rect width="1024" height="1024" rx="159.296" style="fill:#34495d"/><path d="M512,568.735a10,10,0,0,1-10-10v-186.4a10,10,0,0,1,20,0v170.18l166.25-83.621V279.13a10,10,0,0,1,20,0V465.055a10,10,0,0,1-5.507,8.933l-186.25,93.681A9.99,9.99,0,0,1,512,568.735Z" transform="translate(0 0)" style="fill:#cf953f"/><path d="M698.25,848.342a10,10,0,0,1-10-10v-186.4a10,10,0,0,1,20,0v170.18L874.5,738.5V558.736a10,10,0,1,1,20,0V744.661a10,10,0,0,1-5.507,8.934l-186.25,93.68A9.991,9.991,0,0,1,698.25,848.342Z" transform="translate(0 0)" style="fill:#cf953f"/><path d="M325.751,848.342a10,10,0,0,1-10-10v-186.4a10,10,0,0,1,20,0v170.18L502,738.5V558.736a10,10,0,1,1,20,0V744.661a10,10,0,0,1-5.507,8.934l-186.249,93.68A9.991,9.991,0,0,1,325.751,848.342Z" transform="translate(0 0)" style="fill:#cf953f"/><path d="M512,382.331a9.991,9.991,0,0,1-4.481-1.06l-186.25-93.336a10,10,0,0,1,0-17.882l186.3-93.336a10,10,0,0,1,8.966,0l186.2,93.472a10,10,0,0,1-.011,17.88l-186.25,93.2A10,10,0,0,1,512,382.331Z" transform="translate(0 0)" style="fill:#cf953f"/><path d="M698.25,661.937a10,10,0,0,1-4.48-1.06L507.52,567.541a10,10,0,0,1,0-17.881l186.3-93.336a10,10,0,0,1,8.966,0l186.2,93.471a10,10,0,0,1-.011,17.88l-186.25,93.2A10,10,0,0,1,698.25,661.937Z" transform="translate(0 0)" style="fill:#cf953f"/><path d="M325.75,661.937a10,10,0,0,1-4.481-1.06L135.02,567.541a10,10,0,0,1,0-17.881l186.3-93.336a10,10,0,0,1,8.966,0l186.2,93.471a10,10,0,0,1-.011,17.88l-186.25,93.2A10,10,0,0,1,325.75,661.937Z" transform="translate(0 0)" style="fill:#cf953f"/></svg>