<svg id="whlgroup-logo" xmlns="http://www.w3.org/2000/svg" width="1024" height="1024" viewBox="0 0 1024 1024"><rect width="1024" height="1024" rx="159.296" style="fill:#54777a"/><path d="M512,372.332v186.4l186.25-93.68V279.13" transform="translate(0 0)" style="fill:#ebd179"/><path d="M698.25,651.938v186.4L884.5,744.661V558.736" transform="translate(0 0)" style="fill:#ebd179"/><path d="M325.75,651.938v186.4L512,744.661V558.736" transform="translate(0 0)" style="fill:#ebd179"/><g style="opacity:0.8"><path d="M512,372.331v186.4L325.75,465.054V278.994" transform="translate(0 0)" style="fill:#ebd179"/><path d="M698.25,651.937v186.4L512,744.66V558.6" transform="translate(0 0)" style="fill:#ebd179"/><path d="M325.75,651.937v186.4L139.5,744.66V558.6" transform="translate(0 0)" style="fill:#ebd179"/></g><g style="opacity:0.2"><polygon points="698.25 279.13 512.051 185.658 325.75 278.994 511.999 372.331 698.25 279.13" style="fill:#ebd179"/><polygon points="884.5 558.736 698.301 465.265 512 558.601 698.25 651.937 884.5 558.736" style="fill:#ebd179"/><polygon points="512 558.736 325.801 465.265 139.5 558.601 325.75 651.937 512 558.736" style="fill:#ebd179"/></g></svg>